<?xml version="1.0" encoding="UTF-8"?>
<svg version="1.1" xmlns="http://www.w3.org/2000/svg" width="1200" height="1200">
<path d="M0 0 C396 0 792 0 1200 0 C1200 396 1200 792 1200 1200 C804 1200 408 1200 0 1200 C0 804 0 408 0 0 Z " fill="#FEFEFE" transform="translate(0,0)"/>
<path d="M0 0 C0.79011005 -0.00235223 1.58022009 -0.00470446 2.39427286 -0.00712797 C5.04602171 -0.01379333 7.69772127 -0.01336049 10.34947777 -0.01294994 C12.26826151 -0.01625009 14.18704457 -0.01997598 16.10582674 -0.02409142 C21.38223772 -0.03410215 26.65863732 -0.03782672 31.93505645 -0.04048073 C37.62440012 -0.04438645 43.31373481 -0.05396451 49.00307274 -0.0626936 C62.74342414 -0.08244895 76.48377627 -0.09252239 90.22413832 -0.10142139 C96.69487752 -0.10580523 103.1656159 -0.11117174 109.63635445 -0.11641026 C131.14595018 -0.13342052 152.65554461 -0.14794006 174.16514587 -0.155159 C175.55572908 -0.15563375 176.94631228 -0.15610964 178.33689549 -0.15658666 C179.02648673 -0.15682303 179.71607798 -0.15705941 180.42656592 -0.15730295 C183.92026888 -0.15850413 187.41397184 -0.15971958 190.90767479 -0.16094494 C191.60100506 -0.16118509 192.29433533 -0.16142524 193.0086756 -0.16167267 C215.48656842 -0.16956507 237.96440846 -0.19299687 260.44227824 -0.22550088 C284.21590289 -0.25981577 307.9894902 -0.27951049 331.76314104 -0.28280324 C344.71908389 -0.28496865 357.67494915 -0.29372214 370.63086891 -0.31926441 C381.6631796 -0.3409642 392.69539383 -0.34902527 403.72772343 -0.33929763 C409.35551769 -0.33475109 414.98311291 -0.3366601 420.6108799 -0.35605907 C425.76666028 -0.37367752 430.92209622 -0.3727035 436.07788019 -0.35716178 C437.93927903 -0.35478376 439.80070164 -0.35911934 441.66206415 -0.37099043 C459.13316988 -0.47547945 472.62867653 2.99761617 485.76753807 15.19672108 C498.3404712 28.26759215 499.31911007 43.64071776 499.26363373 60.74921227 C499.26511391 62.56234001 499.26747205 64.37546722 499.27062672 66.18859282 C499.27676297 71.18087732 499.27041603 76.17308033 499.26207046 81.16535876 C499.25520152 86.59269598 499.25994376 92.02002494 499.26322544 97.44736379 C499.26737405 106.96254544 499.26408342 116.47770208 499.25594902 125.99288082 C499.24388701 140.1416372 499.24327667 154.29037778 499.245033 168.43913836 C499.24766196 192.23872437 499.24098811 216.03829927 499.22899818 239.83788204 C499.21715286 263.4067544 499.20944792 286.97562218 499.20729256 310.54449749 C499.20718932 311.64247826 499.20718932 311.64247826 499.207084 312.76264045 C499.2064576 319.44822625 499.20588222 326.13381206 499.20536805 332.81939787 C499.20408927 349.43893627 499.20217063 366.05847457 499.19981766 382.67801285 C499.19971102 383.43482581 499.19960439 384.19163878 499.19949452 384.97138547 C499.19425161 421.78502445 499.18163655 458.59866042 499.16841698 495.41229725 C499.16383365 508.18728095 499.15928292 520.96226466 499.15486717 533.73724842 C499.15445632 534.92570879 499.15445632 534.92570879 499.15403718 536.13817845 C499.14135013 572.96729832 499.13391975 609.79641869 499.12780153 646.62554016 C499.12740039 649.03524223 499.1269958 651.4449443 499.12659006 653.85464636 C499.12236324 678.96729673 499.11838908 704.07994713 499.11452451 729.19259755 C499.11441409 729.91006281 499.11430366 730.62752807 499.11418988 731.3667347 C499.11389291 733.29774602 499.11359651 735.22875734 499.11330016 737.15976866 C499.09452114 858.15125852 499.05438141 979.14273263 499.01753807 1100.13422108 C317.51753807 1100.13422108 136.01753807 1100.13422108 -50.98246193 1100.13422108 C-51.18435514 834.67156605 -51.18435514 834.67156605 -51.22328675 733.05407298 C-51.22383362 731.62966691 -51.22438073 730.20526084 -51.22492804 728.78085478 C-51.22520242 728.066644 -51.2254768 727.35243322 -51.22575949 726.61657969 C-51.23546707 701.38396105 -51.24550146 676.15134256 -51.25610821 650.91872428 C-51.25711768 648.5104274 -51.25811857 646.10213051 -51.25911737 643.69383363 C-51.27444163 606.82133617 -51.2939452 569.948847 -51.32578468 533.07635975 C-51.32646918 532.28357017 -51.32715367 531.49078059 -51.32785891 530.67396708 C-51.33892061 517.89204405 -51.35033872 505.11012133 -51.36180413 492.32819866 C-51.39482704 455.50739027 -51.42520981 418.68658824 -51.4381609 381.86576653 C-51.43842857 381.10839581 -51.43869625 380.3510251 -51.43897203 379.57070376 C-51.44480118 362.94360849 -51.4492753 346.31651313 -51.45246684 329.68941714 C-51.45377493 322.99898638 -51.45527804 316.30855567 -51.45684814 309.61812496 C-51.45701528 308.88589164 -51.45718242 308.15365831 -51.45735462 307.3992361 C-51.46283457 283.81607111 -51.48418217 260.23295331 -51.51387297 236.64980735 C-51.54454546 212.22750433 -51.55753075 187.80525506 -51.54996882 163.38293283 C-51.54616242 149.30212472 -51.55633596 135.22148754 -51.58644964 121.14071025 C-51.60519147 111.73570354 -51.60578559 102.33080883 -51.591621 92.9257944 C-51.58406881 87.5662864 -51.58440947 82.2071018 -51.60687784 76.84762841 C-51.62718368 71.96687303 -51.62424233 67.08669193 -51.60316181 62.20594488 C-51.59960574 60.45601389 -51.60434106 58.70604008 -51.61863815 56.95616388 C-51.72081938 43.59726468 -50.35270901 31.17579774 -41.98246193 20.13422108 C-41.32246193 20.13422108 -40.66246193 20.13422108 -39.98246193 20.13422108 C-39.6189463 19.27957264 -39.6189463 19.27957264 -39.24808693 18.40765858 C-34.02893015 9.03250659 -23.71365747 4.36257979 -13.98246193 1.13422108 C-9.30689304 0.16708585 -4.75622214 -0.00968716 0 0 Z " fill="#90A4AC" transform="translate(375.9824619293213,49.86577892303467)"/>
<path d="M0 0 C0.9525107 -0.00085442 1.90502139 -0.00170885 2.88639605 -0.00258917 C6.07391093 -0.00423457 9.26137303 0.00126205 12.44888306 0.00672913 C14.73545328 0.00701123 17.02202358 0.00685282 19.30859375 0.00628662 C25.51466002 0.00599954 31.72070699 0.01188193 37.92676878 0.01886058 C44.41303122 0.0251089 50.8992941 0.02569909 57.38555908 0.02688599 C68.27190495 0.02964164 79.15824369 0.03588923 90.04458618 0.04481506 C101.25617436 0.053998 112.46776062 0.06107452 123.67935181 0.06532288 C124.71646176 0.06571696 124.71646176 0.06571696 125.77452342 0.06611901 C129.24320413 0.06742407 132.71188486 0.06868777 136.1805656 0.06993091 C164.94400118 0.0802929 193.70742612 0.0987255 222.47085571 0.12025452 C222.47085571 24.87025452 222.47085571 49.62025452 222.47085571 75.12025452 C217.19085571 75.78025452 211.91085571 76.44025452 206.47085571 77.12025452 C198.89105885 78.95203876 192.47472971 80.56440425 186.08023071 85.01869202 C183.125046 87.04141553 179.83967477 87.99731483 176.47085571 89.12025452 C176.47085571 89.78025452 176.47085571 90.44025452 176.47085571 91.12025452 C175.15085571 91.45025452 173.83085571 91.78025452 172.47085571 92.12025452 C172.47085571 92.78025452 172.47085571 93.44025452 172.47085571 94.12025452 C170.82082743 95.47412387 169.15341701 96.80703594 167.47085571 98.12025452 C167.14085571 98.78025452 166.81085571 99.44025452 166.47085571 100.12025452 C165.81085571 100.12025452 165.15085571 100.12025452 164.47085571 100.12025452 C164.20273071 100.69775452 163.93460571 101.27525452 163.65835571 101.87025452 C162.47085571 104.12025452 162.47085571 104.12025452 160.90835571 106.12025452 C159.36113378 108.00852419 159.36113378 108.00852419 158.97085571 110.18275452 C158.47085571 112.12025452 158.47085571 112.12025452 157.09976196 113.34291077 C154.8357194 115.81326896 154.03654406 118.34764441 152.90835571 121.49525452 C152.49456665 122.61673889 152.08077759 123.73822327 151.65444946 124.89369202 C148.72121452 134.3615561 148.17440234 144.2607004 148.21358681 154.10479355 C148.2083277 155.81140423 148.2083277 155.81140423 148.20296234 157.5524919 C148.19369774 161.34472141 148.19855891 165.13679568 148.20343018 168.92903137 C148.20079321 171.68350602 148.19516832 174.43797284 148.18969953 177.19244313 C148.17942788 183.17094043 148.17655079 189.14940536 148.17861176 195.12791061 C148.18166909 204.01853598 148.17332163 212.90912568 148.1628625 221.7997441 C148.1435449 238.6042609 148.13789514 255.40876549 148.13674839 272.21329209 C148.13582851 285.19195829 148.1317077 298.17061972 148.12534714 311.14928436 C148.12355199 314.88819734 148.12177237 318.62711032 148.11999738 322.3660233 C148.11955529 323.29558277 148.11911319 324.22514224 148.1186577 325.18287017 C148.10635363 351.32068288 148.09845614 377.45849393 148.09934425 403.59630966 C148.09937541 404.58127339 148.09940657 405.56623713 148.09943867 406.58104824 C148.09960488 411.57300705 148.09980296 416.56496586 148.10000809 421.55692467 C148.10004798 422.5483076 148.10008787 423.53969052 148.10012897 424.56111535 C148.10020984 426.56593159 148.10029344 428.57074782 148.10037975 430.57556406 C148.10160527 461.76756285 148.08659008 492.95951816 148.05923462 524.15150452 C148.02849826 559.21282456 148.01130302 594.27411604 148.01316106 629.33545041 C148.01331032 633.07562081 148.01340774 636.81579121 148.0134697 640.55596161 C148.01350466 641.93730235 148.01350466 641.93730235 148.01354033 643.34654896 C148.01360181 658.15008606 148.0008438 672.95358533 147.98360517 687.7571112 C147.96663274 702.64003216 147.96468749 717.52289791 147.97782381 732.4058232 C147.98520187 741.24063774 147.98158925 750.0752843 147.96193913 758.91008096 C147.94990737 764.8203587 147.95256554 770.73051526 147.96688013 776.64078752 C147.9746164 780.00246191 147.97403553 783.36354908 147.95996542 786.72524151 C147.40413999 810.36630746 147.40413999 810.36630746 155.47085571 832.12025452 C156.33482933 834.76761753 156.87008117 837.39366235 157.47085571 840.12025452 C158.13085571 840.12025452 158.79085571 840.12025452 159.47085571 840.12025452 C161.47085571 843.12025452 161.47085571 843.12025452 161.47085571 846.12025452 C162.46085571 846.45025452 163.45085571 846.78025452 164.47085571 847.12025452 C168.47085571 851.57739737 168.47085571 851.57739737 168.47085571 854.12025452 C169.79085571 854.78025452 171.11085571 855.44025452 172.47085571 856.12025452 C172.47085571 856.78025452 172.47085571 857.44025452 172.47085571 858.12025452 C173.00710571 858.38837952 173.54335571 858.65650452 174.09585571 858.93275452 C176.88752238 860.32858785 179.67918905 861.72442118 182.47085571 863.12025452 C182.47085571 863.78025452 182.47085571 864.44025452 182.47085571 865.12025452 C183.19273071 865.22337952 183.91460571 865.32650452 184.65835571 865.43275452 C187.76113376 866.19121137 189.7435491 867.4711854 192.47085571 869.12025452 C202.25336651 873.336854 211.8659578 874.15617289 222.47085571 875.12025452 C222.47085571 899.87025452 222.47085571 924.62025452 222.47085571 950.12025452 C313.22085571 950.12025452 403.97085571 950.12025452 497.47085571 950.12025452 C497.47085571 999.62025452 497.47085571 1049.12025452 497.47085571 1100.12025452 C315.97085571 1100.12025452 134.47085571 1100.12025452 -52.52914429 1100.12025452 C-52.7310375 834.65759949 -52.7310375 834.65759949 -52.76996911 733.04010642 C-52.77051598 731.61570035 -52.77106309 730.19129428 -52.77161039 728.76688822 C-52.77188477 728.05267744 -52.77215916 727.33846666 -52.77244185 726.60261313 C-52.78214943 701.36999449 -52.79218382 676.137376 -52.80279057 650.90475772 C-52.80380004 648.49646084 -52.80480093 646.08816395 -52.80579973 643.67986707 C-52.82112399 606.80736961 -52.84062756 569.93488044 -52.87246704 533.06239319 C-52.87315153 532.26960361 -52.87383603 531.47681403 -52.87454126 530.66000052 C-52.88560297 517.87807749 -52.89702108 505.09615477 -52.90848649 492.3142321 C-52.9415094 455.49342371 -52.97189217 418.67262168 -52.98484325 381.85179996 C-52.98511093 381.09442925 -52.9853786 380.33705854 -52.98565439 379.5567372 C-52.99148354 362.92964193 -52.99595766 346.30254657 -52.9991492 329.67545058 C-53.00045729 322.98501982 -53.00196039 316.29458911 -53.0035305 309.6041584 C-53.00369764 308.87192508 -53.00386477 308.13969175 -53.00403697 307.38526954 C-53.00951693 283.80210455 -53.03086453 260.21898675 -53.06055533 236.63584079 C-53.09122782 212.21353777 -53.10421311 187.7912885 -53.09665117 163.36896627 C-53.09284477 149.28815816 -53.10301831 135.20752098 -53.133132 121.12674369 C-53.15187382 111.72173698 -53.15246795 102.31684227 -53.13830336 92.91182784 C-53.13075117 87.55231984 -53.13109182 82.19313524 -53.1535602 76.83366185 C-53.17386604 71.95290647 -53.17092469 67.07272537 -53.14984417 62.19197832 C-53.1462881 60.44204733 -53.15102342 58.69207352 -53.16532051 56.94219732 C-53.26750174 43.58329812 -51.89939137 31.16183118 -43.52914429 20.12025452 C-42.86914429 20.12025452 -42.20914429 20.12025452 -41.52914429 20.12025452 C-41.16562866 19.26560608 -41.16562866 19.26560608 -40.79476929 18.39369202 C-35.57561251 9.01854003 -25.26033983 4.34861323 -15.52914429 1.12025452 C-10.32956424 0.00316227 -5.28952904 -0.01740529 0 0 Z " fill="#B0BEC5" transform="translate(377.5291442871094,49.87974548339844)"/>
<path d="M0 0 C181.5 0 363 0 550 0 C550 49.5 550 99 550 150 C368.5 150 187 150 0 150 C0 100.5 0 51 0 0 Z " fill="#CFD8DD" transform="translate(325,1000)"/>
<path d="M0 0 C0 0.99 0 1.98 0 3 C1.32 3 2.64 3 4 3 C5.59765625 4.28515625 5.59765625 4.28515625 7.0625 6.0625 C7.79146484 6.91521484 7.79146484 6.91521484 8.53515625 7.78515625 C13.02090656 14.56761072 13.43081208 20.18077954 13.37473011 28.1464529 C13.37879084 29.26645967 13.38285156 30.38646644 13.38703534 31.54041281 C13.39701272 35.30843481 13.38553526 39.07608708 13.3742218 42.84410095 C13.37529595 45.56681537 13.38088803 48.28951634 13.38626546 51.01222521 C13.39556343 56.93969347 13.39370024 62.86707695 13.38453293 68.79454422 C13.37093826 77.60888047 13.37449683 86.42315155 13.38149153 95.23749252 C13.39342418 110.97940997 13.38832845 126.72128741 13.37621326 142.46320265 C13.36568269 156.239724 13.36113705 170.0162317 13.36250877 183.79275703 C13.3625928 184.70610373 13.36267683 185.61945043 13.36276341 186.5604743 C13.36311565 190.26793041 13.36349966 193.97538651 13.36392899 197.6828426 C13.36789538 232.47242533 13.35517002 267.26198394 13.33440243 302.05155977 C13.31603409 332.9672406 13.31021966 363.88289829 13.31567383 394.79858398 C13.31602026 396.78348781 13.31636636 398.76839164 13.31671212 400.75329547 C13.31688311 401.73458886 13.31705411 402.71588224 13.31723029 403.72691179 C13.31808382 408.66650502 13.3189076 413.60609825 13.31969929 418.54569149 C13.31985637 419.52017473 13.32001345 420.49465798 13.32017529 421.49867101 C13.32416452 447.32252653 13.31869083 473.14637981 13.310188 498.97023398 C13.30928095 501.7486488 13.3083753 504.52706363 13.30747276 507.30547846 C13.30687165 509.14864767 13.30626303 510.99181688 13.30564686 512.83498608 C13.30142371 525.69032676 13.30084797 538.54566307 13.30275235 551.40100422 C13.30519424 567.96756063 13.30113236 584.53409358 13.28554235 601.10064357 C13.27748592 609.86395119 13.27489512 618.62721976 13.2801847 627.39052973 C13.28315836 633.2418734 13.27887052 639.09318252 13.26863613 644.94451793 C13.26300196 648.2798908 13.26160919 651.61511798 13.26680271 654.95050155 C13.27189012 658.54298375 13.26474717 662.13523964 13.25447559 665.72770596 C13.26107032 667.28148238 13.26107032 667.28148238 13.26779827 668.86664823 C13.22276663 677.09942318 12.55163115 684.50052939 7 691 C-0.72866636 697.27809085 -5.99544818 700.63822141 -16 700 C-23.42308394 698.48508491 -29.81646505 693.19782956 -34 687 C-37.58132304 681.40793642 -37.41904977 676.45183191 -37.3719368 670.02903366 C-37.37569793 668.91584505 -37.37945906 667.80265644 -37.38333416 666.65573484 C-37.39231682 662.90486104 -37.37980696 659.15436343 -37.36749268 655.40350342 C-37.36784847 652.69545256 -37.37272856 649.98741409 -37.37739825 647.27936769 C-37.38516059 641.38078188 -37.38175808 635.48228403 -37.37107468 629.58370399 C-37.35523184 620.81219939 -37.35655157 612.0407562 -37.36136696 603.26924162 C-37.36896067 588.51199672 -37.36243569 573.75478921 -37.34775543 558.99755096 C-37.33322853 544.3772121 -37.32446935 529.7568896 -37.32357025 515.13654327 C-37.32350916 514.22757712 -37.32344806 513.31861098 -37.32338512 512.3821004 C-37.3231556 508.6924163 -37.32296842 505.00273221 -37.32283698 501.31304811 C-37.32162513 467.67401992 -37.30591991 434.03501462 -37.28125 400.39599609 C-37.25796528 368.63915835 -37.24378462 336.8823345 -37.24023438 305.12548828 C-37.24012286 304.14751334 -37.24001134 303.16953839 -37.23989645 302.16192785 C-37.23944759 298.21911421 -37.23900562 294.27630058 -37.23856402 290.33348695 C-37.23834364 288.36860175 -37.23812235 286.40371655 -37.23790014 284.43883135 C-37.23767878 282.47876714 -37.23746001 280.51870293 -37.23724384 278.55863871 C-37.23372805 247.34084238 -37.22226608 216.12304866 -37.2094375 184.90525495 C-37.20571904 175.76475796 -37.20245413 166.62426116 -37.20018864 157.48376369 C-37.19537835 138.25729835 -37.18828678 119.03084133 -37.17204097 99.80438176 C-37.16539368 91.85190356 -37.1602439 83.89943209 -37.15958023 75.94695091 C-37.15902782 69.35327076 -37.1551701 62.7596036 -37.14680431 56.16592852 C-37.14268849 52.84696858 -37.14066054 49.52804382 -37.14191952 46.20907912 C-37.14301488 42.63080782 -37.13799153 39.05259517 -37.13142776 35.4743309 C-37.13319724 34.44826117 -37.13496671 33.42219144 -37.1367898 32.36502868 C-37.0803326 14.34401206 -37.0803326 14.34401206 -33.0625 9 C-32.53785156 8.278125 -32.01320313 7.55625 -31.47265625 6.8125 C-24.31531524 -1.99653509 -10.35628913 -0.35484747 0 0 Z " fill="#76FE02" transform="translate(612,175)"/>
<path d="M0 0 C0.30808594 0.62261719 0.61617187 1.24523437 0.93359375 1.88671875 C1.60423502 3.21571849 2.30967405 4.5282675 3.0625 5.8125 C4.3467688 8.80912721 4.62818874 11.77763576 5 15 C5.33 15 5.66 15 6 15 C6 226.53 6 438.06 6 656 C6.66 656.33 7.32 656.66 8 657 C6.515 658.485 6.515 658.485 5 660 C5 658.68 5 657.36 5 656 C4.34 656 3.68 656 3 656 C2.67 659.3 2.34 662.6 2 666 C1.34 666 0.68 666 0 666 C-0.33 667.32 -0.66 668.64 -1 670 C-1.66 670 -2.32 670 -3 670 C-3.0825 670.53625 -3.165 671.0725 -3.25 671.625 C-4.74101635 676.34655178 -6.87709137 679.36148333 -11.1875 681.8125 C-12.5796875 682.4003125 -12.5796875 682.4003125 -14 683 C-14.33 683.33 -14.66 683.66 -15 684 C-18.1156292 684.30467105 -21.24629362 684.27829403 -24.375 684.3125 C-25.2515625 684.34150391 -26.128125 684.37050781 -27.03125 684.40039062 C-33.51627428 684.46484423 -33.51627428 684.46484423 -36.1015625 681.98046875 C-36.39804687 681.32691406 -36.69453125 680.67335938 -37 680 C-35.865625 680.33 -34.73125 680.66 -33.5625 681 C-26.90121135 682.60668406 -21.51120485 683.11986265 -15.3125 679.8125 C-9.34809636 676.10686702 -4.63292662 672.79017918 -2 666 C-0.72179509 660.34738222 -0.85568505 654.71690289 -0.8613348 648.95424843 C-0.85849258 647.83299873 -0.85565036 646.71174903 -0.85272202 645.55652207 C-0.84436325 641.77844754 -0.84310587 638.00040363 -0.84178162 634.22232056 C-0.83776859 631.49477198 -0.83225908 628.76722689 -0.82681805 626.03968084 C-0.81576168 620.09878692 -0.80838952 614.15789724 -0.80341911 608.21699524 C-0.79601165 599.38307511 -0.78292815 590.54916979 -0.76867336 581.71525838 C-0.74485635 566.85561322 -0.72565489 551.99596543 -0.70907402 537.13631058 C-0.69263925 522.42107406 -0.67415913 507.70584246 -0.65294075 492.99061203 C-0.65162314 492.07603559 -0.65030554 491.16145916 -0.648948 490.21916828 C-0.64224602 485.57459235 -0.63550743 480.93001647 -0.62875474 476.28544061 C-0.58097783 443.37861231 -0.53779678 410.47177942 -0.49731445 377.56494141 C-0.45797325 345.59423489 -0.41655283 313.62353217 -0.37231445 281.65283203 C-0.37095192 280.66754429 -0.36958939 279.68225654 -0.36818558 278.66711159 C-0.35450033 268.77254531 -0.34077278 258.87797908 -0.32701423 248.9834129 C-0.29898687 228.82661927 -0.27124188 208.66982526 -0.2436676 188.51303101 C-0.2423994 187.58623206 -0.2411312 186.65943311 -0.23982458 185.70454934 C-0.15515311 123.80303907 -0.07706427 61.90152015 0 0 Z " fill="#8AA8A1" transform="translate(625,192)"/>
<path d="M0 0 C0 0.99 0 1.98 0 3 C1.32 3 2.64 3 4 3 C5.59765625 4.28515625 5.59765625 4.28515625 7.0625 6.0625 C7.79146484 6.91521484 7.79146484 6.91521484 8.53515625 7.78515625 C13.02090656 14.56761072 13.43081208 20.18077954 13.37473011 28.1464529 C13.37879084 29.26645967 13.38285156 30.38646644 13.38703534 31.54041281 C13.39701272 35.30843481 13.38553526 39.07608708 13.3742218 42.84410095 C13.37529595 45.56681537 13.38088803 48.28951634 13.38626546 51.01222521 C13.39556343 56.93969347 13.39370024 62.86707695 13.38453293 68.79454422 C13.37093826 77.60888047 13.37449683 86.42315155 13.38149153 95.23749252 C13.39342418 110.97940997 13.38832845 126.72128741 13.37621326 142.46320265 C13.36568269 156.239724 13.36113705 170.0162317 13.36250877 183.79275703 C13.3625928 184.70610373 13.36267683 185.61945043 13.36276341 186.5604743 C13.36311565 190.26793041 13.36349966 193.97538651 13.36392899 197.6828426 C13.36789538 232.47242533 13.35517002 267.26198394 13.33440243 302.05155977 C13.31603409 332.9672406 13.31021966 363.88289829 13.31567383 394.79858398 C13.31602026 396.78348781 13.31636636 398.76839164 13.31671212 400.75329547 C13.31688311 401.73458886 13.31705411 402.71588224 13.31723029 403.72691179 C13.31808382 408.66650502 13.3189076 413.60609825 13.31969929 418.54569149 C13.31985637 419.52017473 13.32001345 420.49465798 13.32017529 421.49867101 C13.32416452 447.32252653 13.31869083 473.14637981 13.310188 498.97023398 C13.30928095 501.7486488 13.3083753 504.52706363 13.30747276 507.30547846 C13.30687165 509.14864767 13.30626303 510.99181688 13.30564686 512.83498608 C13.30142371 525.69032676 13.30084797 538.54566307 13.30275235 551.40100422 C13.30519424 567.96756063 13.30113236 584.53409358 13.28554235 601.10064357 C13.27748592 609.86395119 13.27489512 618.62721976 13.2801847 627.39052973 C13.28315836 633.2418734 13.27887052 639.09318252 13.26863613 644.94451793 C13.26300196 648.2798908 13.26160919 651.61511798 13.26680271 654.95050155 C13.27189012 658.54298375 13.26474717 662.13523964 13.25447559 665.72770596 C13.26107032 667.28148238 13.26107032 667.28148238 13.26779827 668.86664823 C13.22188363 677.26085594 12.40570424 684.20425752 7 691 C4.25 693.375 4.25 693.375 2 695 C1.34 694.67 0.68 694.34 0 694 C0.66 693.34 1.32 692.68 2 692 C2.16687448 689.41645782 2.16687448 689.41645782 2 687 C3.65 687 5.3 687 7 687 C9.63598173 679.69207293 10.43178931 673.19884787 10.38476086 665.46205711 C10.39248572 663.7732595 10.39248572 663.7732595 10.40036663 662.05034477 C10.4139743 658.2805519 10.40630318 654.51110788 10.39872742 650.74130249 C10.40250445 648.0102945 10.41079292 645.27930432 10.41886932 642.54830611 C10.43403987 636.61224339 10.43816343 630.67625343 10.43499184 624.74017334 C10.43032618 615.91350558 10.44283016 607.08692006 10.45882157 598.26026853 C10.48523891 583.41131008 10.49777751 568.56237029 10.50238609 553.71339035 C10.50699411 539.01261552 10.51778308 524.31186658 10.53681374 509.61110306 C10.53799386 508.69680158 10.53917399 507.7825001 10.54038988 506.84049252 C10.54641536 502.19715234 10.55255114 497.55381232 10.55872939 492.91047235 C10.60228307 460.02804961 10.63199837 427.14562749 10.65356445 394.26318359 C10.67454633 362.31981476 10.70180332 330.37646134 10.73754883 298.43310547 C10.73864831 297.44834383 10.73974778 296.46358219 10.74088058 295.44897929 C10.75192898 285.5595314 10.76310489 275.67008367 10.7743742 265.78063603 C10.79732786 245.63497764 10.81943058 225.48931835 10.84101868 205.34365845 C10.84250911 203.95428376 10.84250911 203.95428376 10.84402964 202.5368409 C10.91027595 140.69123989 10.9566863 78.84562081 11 17 C10.01 16.67 9.02 16.34 8 16 C7.34 15.01 6.68 14.02 6 13 C2.91634129 12.7497843 2.91634129 12.7497843 0 13 C0 11.68 0 10.36 0 9 C0.99 9 1.98 9 3 9 C1.26720471 5.53440942 -1.48128091 4.21354249 -5 3 C-11.4634969 1.92397051 -17.36139296 1.46054076 -23.16015625 4.84375 C-27.44350993 8.5416093 -30.3618571 11.20525079 -31 17 C-32.32 17 -33.64 17 -35 17 C-34.95602893 79.7671129 -34.90836101 142.53422263 -34.84101868 205.30131531 C-34.84002311 206.23022346 -34.83902754 207.15913161 -34.83800181 208.11618849 C-34.81634349 228.30365301 -34.79402082 248.49111674 -34.77101372 268.67857977 C-34.75973516 278.57844432 -34.74860341 288.47830903 -34.73754883 298.37817383 C-34.73644626 299.36333166 -34.7353437 300.34848948 -34.73420772 301.36350058 C-34.69853642 333.29780332 -34.67256059 365.23210501 -34.65161031 397.16642052 C-34.63003077 429.98188251 -34.59867449 462.79732098 -34.55500887 495.61276137 C-34.54884659 500.24724939 -34.54279612 504.88173756 -34.53681374 509.51622581 C-34.53504241 510.88443231 -34.53504241 510.88443231 -34.53323531 512.28027934 C-34.51451064 526.96575133 -34.50609844 541.651212 -34.50153876 556.33669447 C-34.49673529 571.09900077 -34.48107678 585.86126391 -34.45433434 600.62354705 C-34.43877435 609.39508695 -34.43154092 618.16654172 -34.43623071 626.93809466 C-34.43854391 632.79901612 -34.42999999 638.65985718 -34.41267589 644.52075332 C-34.40311694 647.85930105 -34.39988727 651.19752368 -34.40660437 654.53610054 C-34.41311235 658.13725302 -34.40121611 661.73789897 -34.38476086 665.33900928 C-34.39103755 666.36898013 -34.39731425 667.39895097 -34.40378115 668.46013305 C-34.31460675 679.04914556 -32.61438551 687.38561449 -25 695 C-31.12322973 692.24389659 -34.53711548 687.08566872 -37 681 C-37.43722124 677.34252202 -37.39892972 673.70891358 -37.3719368 670.02903366 C-37.37569793 668.91584505 -37.37945906 667.80265644 -37.38333416 666.65573484 C-37.39231682 662.90486104 -37.37980696 659.15436343 -37.36749268 655.40350342 C-37.36784847 652.69545256 -37.37272856 649.98741409 -37.37739825 647.27936769 C-37.38516059 641.38078188 -37.38175808 635.48228403 -37.37107468 629.58370399 C-37.35523184 620.81219939 -37.35655157 612.0407562 -37.36136696 603.26924162 C-37.36896067 588.51199672 -37.36243569 573.75478921 -37.34775543 558.99755096 C-37.33322853 544.3772121 -37.32446935 529.7568896 -37.32357025 515.13654327 C-37.32350916 514.22757712 -37.32344806 513.31861098 -37.32338512 512.3821004 C-37.3231556 508.6924163 -37.32296842 505.00273221 -37.32283698 501.31304811 C-37.32162513 467.67401992 -37.30591991 434.03501462 -37.28125 400.39599609 C-37.25796528 368.63915835 -37.24378462 336.8823345 -37.24023438 305.12548828 C-37.24012286 304.14751334 -37.24001134 303.16953839 -37.23989645 302.16192785 C-37.23944759 298.21911421 -37.23900562 294.27630058 -37.23856402 290.33348695 C-37.23834364 288.36860175 -37.23812235 286.40371655 -37.23790014 284.43883135 C-37.23767878 282.47876714 -37.23746001 280.51870293 -37.23724384 278.55863871 C-37.23372805 247.34084238 -37.22226608 216.12304866 -37.2094375 184.90525495 C-37.20571904 175.76475796 -37.20245413 166.62426116 -37.20018864 157.48376369 C-37.19537835 138.25729835 -37.18828678 119.03084133 -37.17204097 99.80438176 C-37.16539368 91.85190356 -37.1602439 83.89943209 -37.15958023 75.94695091 C-37.15902782 69.35327076 -37.1551701 62.7596036 -37.14680431 56.16592852 C-37.14268849 52.84696858 -37.14066054 49.52804382 -37.14191952 46.20907912 C-37.14301488 42.63080782 -37.13799153 39.05259517 -37.13142776 35.4743309 C-37.13319724 34.44826117 -37.13496671 33.42219144 -37.1367898 32.36502868 C-37.0803326 14.34401206 -37.0803326 14.34401206 -33.0625 9 C-32.53785156 8.278125 -32.01320313 7.55625 -31.47265625 6.8125 C-24.31531524 -1.99653509 -10.35628913 -0.35484747 0 0 Z " fill="#88EB39" transform="translate(612,175)"/>
<path d="M0 0 C0.33 0 0.66 0 1 0 C0.9992201 0.57589908 0.99844019 1.15179815 0.99763666 1.74514871 C0.91291661 64.43543487 0.83438789 127.12572746 0.7882843 189.8160553 C0.78759402 190.75228825 0.78690373 191.6885212 0.78619253 192.65312485 C0.77122849 212.99928978 0.75737751 233.34545532 0.74467335 253.69162178 C0.73843659 263.66917051 0.73195383 273.64671908 0.7253418 283.62426758 C0.724688 284.61716114 0.72403421 285.6100547 0.7233606 286.63303594 C0.70204843 318.82385466 0.66448784 351.01462955 0.6185139 383.2054217 C0.57136105 416.28170216 0.54057513 449.35795835 0.53042505 482.43427185 C0.52898425 487.10453805 0.52735606 491.77480417 0.52561378 496.44507027 C0.52527667 497.36425853 0.52493955 498.28344679 0.52459222 499.23048924 C0.51868035 514.03540977 0.49548123 528.84025532 0.46583983 543.64514525 C0.43641863 558.52391188 0.42515633 573.40260407 0.43249311 588.28139877 C0.43630012 597.12453936 0.42612097 605.96740782 0.39601228 614.81049935 C0.37727488 620.71655983 0.37667305 626.62244194 0.39084093 632.5285147 C0.39839602 635.89468085 0.39528505 639.25991346 0.37558409 642.62609278 C0.35558384 646.25352217 0.36629264 649.87961021 0.38476086 653.50701809 C0.37162579 654.55026468 0.35849072 655.59351128 0.34495762 656.66837141 C0.42570442 663.66370339 2.06776451 668.23654708 6 674 C6.99 675.485 6.99 675.485 8 677 C3.71553965 675.67385751 2.01486903 674.22527735 -0.25 670.375 C-1.00023437 669.14910156 -1.00023437 669.14910156 -1.765625 667.8984375 C-4.67792055 661.06007262 -4.14491489 653.24890911 -4.13422108 645.93911171 C-4.13657331 644.84049915 -4.13892554 643.74188658 -4.14134905 642.60998273 C-4.14801729 638.92085621 -4.14758148 635.23176509 -4.14717102 631.54263306 C-4.15047096 628.8741082 -4.15415924 626.20558641 -4.1583125 623.537063 C-4.16762153 616.96733024 -4.17155767 610.3976042 -4.17383147 603.82786567 C-4.17679784 595.95775207 -4.18549763 588.08764738 -4.19424575 580.21753846 C-4.21507023 561.1995448 -4.22555566 542.18154961 -4.23437535 523.16354721 C-4.23858355 514.16714712 -4.24380521 505.1707477 -4.24905988 496.17434817 C-4.26694575 465.37826584 -4.28194297 434.58218332 -4.28938007 403.78609657 C-4.28985483 401.85352294 -4.29033072 399.92094931 -4.29080774 397.98837569 C-4.29104411 397.03000144 -4.29128049 396.07162719 -4.29152403 395.0842113 C-4.29272522 390.2286669 -4.29394067 385.37312251 -4.29516602 380.51757812 C-4.29540617 379.55398558 -4.29564632 378.59039304 -4.29589374 377.59760073 C-4.30379052 346.34027406 -4.32723238 315.08298529 -4.35972196 283.82567518 C-4.39401078 250.7770635 -4.41373017 217.72847402 -4.41702431 184.67984426 C-4.41744186 181.05290372 -4.41792142 177.4259632 -4.41844749 173.79902267 C-4.41857069 172.90597055 -4.41869388 172.01291842 -4.4188208 171.09280411 C-4.42115362 156.71625927 -4.43681768 142.33975846 -4.45728934 127.96322933 C-4.47753309 113.51782352 -4.48303144 99.07247064 -4.47351871 84.62705328 C-4.46829866 76.04407075 -4.47420508 67.46126434 -4.49605338 58.87830712 C-4.50954656 53.14465656 -4.50849764 47.41112742 -4.49565142 41.67747569 C-4.48874496 38.41090108 -4.4903287 35.14473114 -4.50521151 31.87817331 C-4.52026715 28.35600254 -4.51070043 24.83471915 -4.49498463 21.31257057 C-4.50520683 20.30311599 -4.51542904 19.2936614 -4.52596101 18.25361729 C-4.45939978 11.42971778 -2.94544088 6.14708362 0 0 Z " fill="#85AE8D" transform="translate(575,191)"/>
<path d="M0 0 C0.33 0 0.66 0 1 0 C1.03427436 62.1279728 1.06607396 124.2559467 1.08468628 186.38392639 C1.08496239 187.30324249 1.08523851 188.22255859 1.08552299 189.16973276 C1.09150862 209.1482999 1.09704901 229.12686714 1.10213066 249.10543453 C1.10462536 258.90272786 1.10721846 268.70002116 1.10986328 278.49731445 C1.1101248 279.4722699 1.11038632 280.44722535 1.11065576 281.4517249 C1.1191805 313.06050226 1.13420465 344.66927249 1.15259444 376.27804552 C1.17145592 408.75650942 1.18377003 441.23496936 1.18782998 473.71343864 C1.1884063 478.29937722 1.18905758 482.88531579 1.18975449 487.47125435 C1.18988933 488.37384481 1.19002418 489.27643526 1.19016311 490.20637695 C1.19252778 504.74347607 1.20180725 519.28056299 1.21366407 533.81765713 C1.22543302 548.42756103 1.22993734 563.0374528 1.22700275 577.64736127 C1.22548006 586.33044373 1.22955087 595.01348184 1.24159509 603.6965563 C1.2490907 609.49593992 1.24933022 615.29529447 1.24366363 621.0946801 C1.24064221 624.39967245 1.24188553 627.7045639 1.24976636 631.00955068 C1.25776731 634.57124997 1.25348117 638.13273074 1.24609566 641.69442654 C1.25134968 642.71842099 1.25660371 643.74241544 1.26201695 644.79744002 C1.23365472 650.83165423 0.51725326 656.15454006 -1 662 C-1.66 662 -2.32 662 -3 662 C-3.0825 662.53625 -3.165 663.0725 -3.25 663.625 C-4.74101635 668.34655178 -6.87709137 671.36148333 -11.1875 673.8125 C-12.5796875 674.4003125 -12.5796875 674.4003125 -14 675 C-14.33 675.33 -14.66 675.66 -15 676 C-18.1156292 676.30467105 -21.24629362 676.27829403 -24.375 676.3125 C-25.2515625 676.34150391 -26.128125 676.37050781 -27.03125 676.40039062 C-33.51627428 676.46484423 -33.51627428 676.46484423 -36.1015625 673.98046875 C-36.39804687 673.32691406 -36.69453125 672.67335938 -37 672 C-35.865625 672.33 -34.73125 672.66 -33.5625 673 C-26.90121135 674.60668406 -21.51120485 675.11986265 -15.3125 671.8125 C-9.34809636 668.10686702 -4.63292662 664.79017918 -2 658 C-0.73423943 652.38493835 -0.85565336 646.8028633 -0.8613348 641.07918739 C-0.85849258 639.97144468 -0.85565036 638.86370198 -0.85272202 637.72239131 C-0.84436402 633.99026392 -0.84310593 630.25816753 -0.84178162 626.52603149 C-0.83721702 623.83148158 -0.83225901 621.13693501 -0.82681805 618.44238698 C-0.81576213 612.57359213 -0.80838969 606.70480157 -0.80341911 600.83599854 C-0.79601139 592.10928835 -0.78292783 583.38259316 -0.76867336 574.6558918 C-0.74485682 559.97655801 -0.72565516 545.29722156 -0.70907402 530.61787796 C-0.69263907 516.08127096 -0.67415886 501.54466893 -0.65294075 487.00806808 C-0.65162314 486.10458242 -0.65030554 485.20109676 -0.648948 484.27023274 C-0.64224601 479.68197717 -0.63550742 475.09372165 -0.62875474 470.50546615 C-0.58097826 437.99795231 -0.53779709 405.49043383 -0.49731445 372.98291016 C-0.45797304 341.40022443 -0.41655257 309.81754255 -0.37231445 278.23486328 C-0.37095192 277.26152798 -0.36958939 276.28819269 -0.36818558 275.28536238 C-0.35450033 265.51082329 -0.34077278 255.73628427 -0.32701423 245.96174528 C-0.29898689 226.04947889 -0.2712419 206.1372121 -0.2436676 186.22494507 C-0.2423994 185.30939003 -0.2411312 184.39383499 -0.23982458 183.45053586 C-0.15515359 122.30036349 -0.07706454 61.15018237 0 0 Z " fill="#7DBC61" transform="translate(625,200)"/>
<path d="M0 0 C0 0.99 0 1.98 0 3 C1.32 3 2.64 3 4 3 C8.23358666 6.42333084 10.7163052 10.73685134 12 16 C9.4857885 14.35275798 8.07695209 13.13382972 6.5625 10.5 C3.89594889 6.23351823 -0.35541788 4.57201241 -5 3 C-12.78015932 2.17232348 -20.04122681 1.74797201 -26.484375 6.7109375 C-26.98453125 7.13632813 -27.4846875 7.56171875 -28 8 C-28.99 8.66 -29.98 9.32 -31 10 C-32.01187895 11.65948148 -33.0126546 13.32580562 -34 15 C-34.99 15.495 -34.99 15.495 -36 16 C-34.66839536 10.54042096 -32.45027561 6.44201004 -28 3 C-19.18260448 -0.91271926 -9.42892615 -0.32307234 0 0 Z " fill="#83DB4A" transform="translate(612,175)"/>
<path d="M0 0 C2.475 0.495 2.475 0.495 5 1 C5 1.66 5 2.32 5 3 C8.63 3 12.26 3 16 3 C16.33 2.01 16.66 1.02 17 0 C19.64 0 22.28 0 25 0 C22.13468478 3.06292316 20.28156621 4.81312886 15.94921875 5.16796875 C10.45995722 5.2153717 5.47825485 5.14782087 1.125 1.375 C0.75375 0.92125 0.3825 0.4675 0 0 Z " fill="#80EA36" transform="translate(587,870)"/>
<path d="M0 0 C0.66 0 1.32 0 2 0 C1 3 1 3 -2 4.625 C-2.99 5.07875 -3.98 5.5325 -5 6 C-5.33 6.33 -5.66 6.66 -6 7 C-9.1156292 7.30467105 -12.24629362 7.27829403 -15.375 7.3125 C-16.2515625 7.34150391 -17.128125 7.37050781 -18.03125 7.40039062 C-24.51627428 7.46484423 -24.51627428 7.46484423 -27.1015625 4.98046875 C-27.39804687 4.32691406 -27.69453125 3.67335938 -28 3 C-26.2984375 3.495 -26.2984375 3.495 -24.5625 4 C-15.73976178 6.13978537 -9.14424028 5.02364252 -1 1 C-0.67 0.67 -0.34 0.34 0 0 Z " fill="#85B383" transform="translate(616,869)"/>
<path d="M0 0 C2.64 0 5.28 0 8 0 C8 0.99 8 1.98 8 3 C9.32 3 10.64 3 12 3 C16.23358666 6.42333084 18.7163052 10.73685134 20 16 C17.4857885 14.35275798 16.07695209 13.13382972 14.5625 10.5 C12.7200987 7.55215791 11.03203862 6.62694755 8 5 C7.319375 4.484375 6.63875 3.96875 5.9375 3.4375 C4.032178 2.023874 2.14739037 0.99700267 0 0 Z " fill="#83C865" transform="translate(604,175)"/>
<path d="M0 0 C4.34361288 1.18462169 7.28300842 2.30489146 10 6 C9.75 8.25 9.75 8.25 9 10 C8.01 9.67 7.02 9.34 6 9 C4.68 9 3.36 9 2 9 C2 7.68 2 6.36 2 5 C2.99 5 3.98 5 5 5 C3.74458443 2.48916886 2.49936512 2.12874554 0 1 C0 0.67 0 0.34 0 0 Z " fill="#7AF61C" transform="translate(610,179)"/>
<path d="M0 0 C4.95 0 9.9 0 15 0 C14.67 0.99 14.34 1.98 14 3 C10.37 3 6.74 3 3 3 C3 2.34 3 1.68 3 1 C2.01 0.67 1.02 0.34 0 0 Z " fill="#74FB11" transform="translate(589,870)"/>
<path d="M0 0 C0 0.66 0 1.32 0 2 C-0.90363281 2.13277344 -1.80726563 2.26554688 -2.73828125 2.40234375 C-4.50751953 2.66724609 -4.50751953 2.66724609 -6.3125 2.9375 C-8.07013672 3.19853516 -8.07013672 3.19853516 -9.86328125 3.46484375 C-13.01641403 3.92093031 -13.01641403 3.92093031 -16 5 C-16 4.01 -16 3.02 -16 2 C-10.42932723 0.40837921 -5.78898419 -0.20674944 0 0 Z " fill="#81B77A" transform="translate(604,173)"/>
<path d="M0 0 C2.53408774 1.26704387 2.93209972 2.43123157 4.1875 4.9375 C4.55230469 5.64777344 4.91710937 6.35804687 5.29296875 7.08984375 C5.52628906 7.72019531 5.75960937 8.35054687 6 9 C5 11 5 11 3 12 C2.49440092 10.56445975 1.9957251 9.1264798 1.5 7.6875 C1.2215625 6.88699219 0.943125 6.08648437 0.65625 5.26171875 C0 3 0 3 0 0 Z " fill="#9FADB3" transform="translate(865,70)"/>
<path d="M0 0 C0.33 0.99 0.66 1.98 1 3 C-0.21484375 4.82421875 -0.21484375 4.82421875 -1.9375 6.6875 C-2.50339844 7.31011719 -3.06929687 7.93273437 -3.65234375 8.57421875 C-4.09707031 9.04472656 -4.54179688 9.51523437 -5 10 C-5.66 9.67 -6.32 9.34 -7 9 C-6.34 8.34 -5.68 7.68 -5 7 C-4.83312552 4.41645782 -4.83312552 4.41645782 -5 2 C-3.35 2 -1.7 2 0 2 C0 1.34 0 0.68 0 0 Z " fill="#7DF61E" transform="translate(619,860)"/>
<path d="M0 0 C1.65 0.33 3.3 0.66 5 1 C4.443125 1.20625 3.88625 1.4125 3.3125 1.625 C-0.82733035 4.08652075 -3.36502874 8.04754311 -6 12 C-5.44271087 8.65626525 -4.64826111 5.96687001 -3 3 C-2.34 3 -1.68 3 -1 3 C-0.67 2.01 -0.34 1.02 0 0 Z " fill="#8CAA94" transform="translate(583,176)"/>
<path d="M0 0 C0.66 0.33 1.32 0.66 2 1 C1.505 1.61875 1.01 2.2375 0.5 2.875 C-1.19222773 4.83880904 -1.19222773 4.83880904 -1 7 C-1.66 7 -2.32 7 -3 7 C-3 7.66 -3 8.32 -3 9 C-3.66 8.67 -4.32 8.34 -5 8 C-5 5 -5 5 -2.5 2.3125 C-1.675 1.549375 -0.85 0.78625 0 0 Z " fill="#BBC4CA" transform="translate(344,60)"/>
<path d="M0 0 C0 2.64 0 5.28 0 8 C-1.65 6.35 -3.3 4.7 -5 3 C-2.25 0 -2.25 0 0 0 Z " fill="#79F817" transform="translate(586,860)"/>
<path d="M0 0 C0.66 0.33 1.32 0.66 2 1 C0.5459375 2.3303125 0.5459375 2.3303125 -0.9375 3.6875 C-3.60122242 6.32615209 -4.7731363 8.14331715 -5 12 C-5.33 12 -5.66 12 -6 12 C-6.375 8.8125 -6.375 8.8125 -6 5 C-4.18811972 2.8596502 -2.34198833 1.61011698 0 0 Z " fill="#7AF719" transform="translate(586,180)"/>
<path d="M0 0 C0.96516243 3.00272755 1.22393475 5.04215769 0 8 C-0.99 8.33 -1.98 8.66 -3 9 C-2.5020163 5.26512223 -2.12508244 3.18762365 0 0 Z " fill="#C2CACD" transform="translate(331,75)"/>
<path d="M0 0 C1.98 1.65 3.96 3.3 6 5 C5.34 5.66 4.68 6.32 4 7 C2.35 5.35 0.7 3.7 -1 2 C-0.67 1.34 -0.34 0.68 0 0 Z " fill="#9CAAB0" transform="translate(854,59)"/>
<path d="M0 0 C2 0.9375 2 0.9375 4 3 C4.36475845 6.02534949 4.22893297 8.96663814 4 12 C3.67 12 3.34 12 3 12 C3 9.36 3 6.72 3 4 C2.01 3.67 1.02 3.34 0 3 C0 2.01 0 1.02 0 0 Z " fill="#81EF2C" transform="translate(620,188)"/>
</svg>
